# xmcd CD database file
#
# Track frame offsets:
#	150
#	3967
#	21139
#	37993
#	53306
#	79484
#	83721
#	102562
#	123703
#	140991
#	164112
#	179674
#	198565
#	216311
#	237451
#	263828
#	282418
#	298929
#
# Disc length: 4448 seconds
#
# Revision: 0
# Processed by: cddbd v1.5.1PL2 Copyright (c) Steve Scherf et al.
# Submitted via: CDex 1.60beta1-cs1
#
DISCID=1b115e12
DTITLE=The Phenix Country Band - Phenix
DYEAR=2006
DGENRE=Country
TTITLE0=Intro
TTITLE1=Sauvage
TTITLE2=A 6 packs to go
TTITLE3=Who's cheating who
TTITLE4=The ghost in my home
TTITLE5=You'd better love (part one)
TTITLE6=You'd better love (part two)
TTITLE7=The rose
TTITLE8=You waste your time
TTITLE9=Living on the road
TTITLE10=I saw the light
TTITLE11=The silver guy with gold around
TTITLE12=Tout est à moi
TTITLE13=I love the wild side
TTITLE14=Hope
TTITLE15=Lies
TTITLE16=Jenny
TTITLE17=Forgive
EXTD=YEAR: 2006
EXTT0=
EXTT1=
EXTT2=
EXTT3=
EXTT4=
EXTT5=
EXTT6=
EXTT7=
EXTT8=
EXTT9=
EXTT10=
EXTT11=
EXTT12=
EXTT13=
EXTT14=
EXTT15=
EXTT16=
EXTT17=
PLAYORDER=
